<?xml version="1.0" encoding="utf-8"?>
<!-- Generator: Adobe Illustrator 28.3.0, SVG Export Plug-In . SVG Version: 6.00 Build 0)  -->
<svg version="1.1" id="Layer_1" xmlns="http://www.w3.org/2000/svg" xmlns:xlink="http://www.w3.org/1999/xlink" x="0px" y="0px"
	 viewBox="0 0 310 101.2" style="enable-background:new 0 0 310 101.2;" xml:space="preserve">
<style type="text/css">
	.st0{fill:#004D40;}
	.st1{fill:#D72638;}
	.st2{fill:none;stroke:#ED2024;stroke-width:3.5808;stroke-linecap:round;stroke-miterlimit:10;}
	.st3{fill:url(#SVGID_1_);}
</style>
<g>
	<path class="st0" d="M50.8,43.3c0,2-1.4,4.3-4.1,7.1s-5.5,4.2-8.4,4.2c-2.4,0-4.3-0.9-5.6-2.7s-2-4.4-2-7.6
		c0-5.5,1.4-10.7,4.4-15.7s6.1-7.4,9.5-7.4c1.1,0,2,0.5,2.8,1.4s1.1,2.1,1.1,3.4c0,3-1.1,5.8-3.4,8.5c-2.3,2.7-5.3,5.4-9.1,8
		c-0.8,0.5-1.2,1.2-1.2,2c0,1.6,0.4,2.9,1.1,3.8c0.7,1,1.8,1.4,3.2,1.4c3.2,0,6.5-2.3,9.9-6.9c0.5-0.6,0.9-1,1.1-1
		C50.6,41.8,50.8,42.3,50.8,43.3z M35.1,38.8c6.4-4.8,9.6-8.7,9.6-11.7c0-1.1-0.4-1.7-1.2-1.7c-1.4,0-3,1.3-4.7,3.9
		C37,31.9,35.8,35,35.1,38.8z"/>
	<path class="st0" d="M56.7,39.6c0.2-0.3,1.5-1.9,4-4.6c2.4-2.6,4-4.5,5-5.7c3.5-4.4,6-6.7,7.5-6.7c1.2,0,1.8,0.7,1.8,2.2
		c0,1.6-0.6,2.8-1.7,3.6c-1.5,1-3.5,2.6-6,4.9s-3.8,3.9-3.8,4.8c0,0.4,0.9,1.8,2.7,4.3s3.3,4.3,4.6,5.5c1.3,1.2,2.6,1.8,3.8,1.8h0.8
		c0.5,0,0.8,0.3,0.8,0.9c0,0.8-0.4,1.7-1.2,2.6c-0.8,0.9-1.9,1.3-3.3,1.3c-0.9,0-1.8-0.4-2.7-1.2c-0.9-0.8-2.5-2.9-4.8-6.3
		c-1.8-2.8-3-4.5-3.4-5.1s-1-0.9-1.3-0.9c-0.2,0-0.7,0.5-1.6,1.5c-0.9,1-1.4,1.8-1.5,2.3s-0.1,2.5-0.1,5.9v1.4
		c0,0.7-0.3,1.3-0.8,1.9c-0.5,0.6-1.1,0.8-1.7,0.8c-0.6,0-1.1-0.2-1.5-0.7s-0.5-1-0.5-1.5c0-0.7,0.2-2.3,0.6-4.9
		C53,44,53.5,39,54,32.8c1.1-14.7,2-23,2.6-24.9C57.2,6,58.1,5,59.2,5c0.4,0,0.7,0.3,1,0.8s0.4,1.2,0.4,2.1c0,1.5-0.5,5.6-1.6,12.2
		C58,26.8,57.2,33.3,56.7,39.6z"/>
	<path class="st0" d="M80.2,44.4c5.6-13.2,10.2-19.8,13.9-19.8c1,0,1.8,0.7,2.3,2.1s1.1,4.5,1.5,9.3c0.4,5.1,1.2,8.8,2.6,11.1
		c0.7,1.2,1,2,1,2.6c0,0.5-0.2,1-0.7,1.4c-0.4,0.4-0.9,0.6-1.4,0.6c-1.2,0-2.2-0.8-3.1-2.5s-1.5-4.6-1.7-8.9c-0.3-4-0.5-6.6-0.8-7.8
		s-0.8-1.9-1.4-1.9c-1.6,0-4.8,5.3-9.6,15.8c-1.4,3.2-2.5,5.2-3.2,6.2s-1.3,1.5-1.8,1.5c-0.7,0-1.2-0.2-1.7-0.8s-0.7-1.1-0.7-1.8
		c0-0.5,0.1-1.6,0.4-3.1c1.8-12.2,3.3-24.3,4.4-36.2c0.2-2.8,0.6-4.6,1.2-5.6c0.5-0.9,1-1.4,1.3-1.4c0.7,0,1.2,0.3,1.8,1
		C85,6.9,85.3,7.8,85.3,9c0,3.5-0.7,8.4-2,14.6c-0.7,3.1-1.4,6.9-2.1,11.6s-1.1,7.6-1.1,8.7C79.9,44.3,80,44.4,80.2,44.4
		C80.1,44.4,80.2,44.4,80.2,44.4z"/>
	<path class="st0" d="M117.6,42.6c-2.1,3.6-4.2,6.3-6.3,8.1c-2.1,1.8-4,2.7-5.7,2.7c-1.2,0-2.2-0.6-3-1.9c-0.8-1.2-1.3-2.8-1.3-4.8
		c0-5,1.8-10.5,5.3-16.3s7.1-8.8,10.6-8.8c1.3,0,2.2,0.9,2.8,2.8c0.2,0.6,0.5,0.9,0.9,0.9c1.2,0,1.8,0.6,1.8,1.8
		c0,0.6-0.1,1.4-0.2,2.5c-0.8,5.7-1.2,9.7-1.2,12c0,4.7,0.7,7.4,2.1,8.4c0.7,0.5,1,1,1,1.7c0,0.6-0.3,1.2-1,1.8s-1.3,0.9-1.9,0.9
		c-1.2,0-2.1-1-2.9-3.1C117.9,49.2,117.6,46.3,117.6,42.6z M116.2,26.3c-2,0-4.3,2.4-6.9,7.1s-4,8.7-4,11.8c0,2.2,0.6,3.3,1.7,3.3
		c1.7,0,4-2.1,6.9-6.4s4.4-8.2,4.4-11.8C118.3,27.7,117.6,26.3,116.2,26.3z"/>
	<path class="st0" d="M141.7,30.9c-0.8,0-1.6,0.6-2.6,2c-0.9,1.3-2.3,4.2-4.2,8.8c-2.5,6.1-4.1,9.6-4.9,10.4s-1.3,1.3-1.8,1.3
		c-1.8,0-2.7-1.1-2.7-3.3c0-0.9,0.1-2.2,0.4-3.9c0.8-5.8,1.2-11.9,1.2-18.4c0-0.7,0.2-1.5,0.7-2.4c0.5-0.9,1-1.3,1.4-1.3
		c0.8,0,1.3,0.3,1.7,0.9c0.3,0.6,0.5,1.9,0.5,3.7c0,1.9-0.4,5.9-1.4,12c-0.3,2-0.4,3.3-0.4,3.8c0,0.3,0.1,0.5,0.2,0.5
		c0.2,0,1.3-2.3,3.1-6.9c1.9-4.7,3.5-8,5-9.9c1.4-1.9,3-2.9,4.7-2.9c1.4,0,2.5,0.8,3.3,2.4c0.9,1.6,1.5,4.4,1.9,8.6
		c0.4,4.8,0.8,7.7,1.1,8.9s0.9,1.7,1.6,1.7c0.5,0,1.1-0.2,1.8-0.6c0.1-0.1,0.2-0.1,0.3-0.1c0.6,0,1,0.5,1,1.4c0,0.8-0.4,1.7-1.3,2.7
		c-0.9,1-2,1.4-3.2,1.4c-1.3,0-2.3-0.7-3-2s-1.2-4.8-1.7-10.4C143.9,33.7,143,30.9,141.7,30.9z"/>
	<path class="st0" d="M173.1,43.3c0,2-1.4,4.3-4.1,7.1s-5.5,4.2-8.4,4.2c-2.4,0-4.3-0.9-5.6-2.7s-2-4.4-2-7.6
		c0-5.5,1.4-10.7,4.4-15.7s6.1-7.4,9.5-7.4c1.1,0,2.1,0.5,2.8,1.4s1.1,2.1,1.1,3.4c0,3-1.1,5.8-3.4,8.5c-2.3,2.7-5.3,5.4-9.1,8
		c-0.8,0.5-1.2,1.2-1.2,2c0,1.6,0.4,2.9,1.1,3.8c0.7,1,1.8,1.4,3.2,1.4c3.2,0,6.6-2.3,9.9-6.9c0.5-0.6,0.9-1,1.1-1
		C172.9,41.8,173.1,42.3,173.1,43.3z M157.4,38.8c6.4-4.8,9.6-8.7,9.6-11.7c0-1.1-0.4-1.7-1.2-1.7c-1.4,0-2.9,1.3-4.7,3.9
		C159.4,31.9,158.1,35,157.4,38.8z"/>
	<path class="st0" d="M179,46.7c0,1.5,0.2,3.1,0.5,4.9c0.1,0.3,0.1,0.6,0.1,0.9c0,0.3-0.2,0.8-0.8,1.3s-1,0.8-1.6,0.8
		c-1.5,0-2.2-1.7-2.2-5.1c0-3.5,0.6-9.1,1.7-16.8c0.4-2.7,0.6-4.3,0.6-4.9c0-1.2,0.2-2.2,0.5-3.1s0.8-1.3,1.5-1.3
		c0.8,0,1.4,0.2,1.8,0.7c0.4,0.5,0.7,1,0.7,1.6s-0.1,1.3-0.3,2.3c-1.1,5.1-1.8,8.7-2.1,10.9S179,43.6,179,46.7z M182,14.5
		c-0.3,0-0.6-0.4-0.7-1.3c-0.1-0.3-0.1-0.6-0.2-0.9c-0.4-1.2-0.6-2.3-0.6-3.3c0-0.8,0.4-1.5,1.1-2.3c0.7-0.8,1.5-1.2,2.4-1.2
		c0.4,0,0.9,0.2,1.5,0.6c0.5,0.4,0.8,0.9,0.8,1.3c0,0.6-0.2,1.7-0.6,3.2c-0.4,1.5-1,2.5-1.8,3.1C183,14.2,182.4,14.5,182,14.5z"/>
	<path class="st0" d="M189.3,39.6c0.2-0.3,1.5-1.9,4.1-4.6c2.4-2.6,4-4.5,4.9-5.7c3.5-4.4,6-6.7,7.5-6.7c1.2,0,1.8,0.7,1.8,2.2
		c0,1.6-0.6,2.8-1.7,3.6c-1.5,1-3.5,2.6-6,4.9s-3.8,3.9-3.8,4.8c0,0.4,0.9,1.8,2.7,4.3s3.3,4.3,4.6,5.5s2.6,1.8,3.8,1.8h0.8
		c0.5,0,0.8,0.3,0.8,0.9c0,0.8-0.4,1.7-1.2,2.6c-0.8,0.9-1.9,1.3-3.3,1.3c-0.9,0-1.8-0.4-2.7-1.2s-2.5-2.9-4.8-6.3
		c-1.8-2.8-3-4.5-3.4-5.1s-0.8-0.8-1.1-0.8c-0.2,0-0.7,0.5-1.6,1.5s-1.4,1.8-1.5,2.3s-0.1,2.5-0.1,5.9v1.4c0,0.7-0.3,1.3-0.8,1.9
		c-0.5,0.6-1.1,0.8-1.7,0.8c-0.6,0-1.1-0.2-1.5-0.7s-0.5-1-0.5-1.5c0-0.7,0.2-2.3,0.6-4.9c0.6-3.7,1.1-8.7,1.6-14.9
		c1.1-14.7,2-23,2.6-25C190,6,190.9,5,192,5c0.4,0,0.7,0.3,1,0.8s0.4,1.2,0.4,2.1c0,1.5-0.5,5.6-1.6,12.2
		C190.5,26.8,189.7,33.3,189.3,39.6z"/>
	<path class="st0" d="M213.4,46.7c0,1.5,0.2,3.1,0.5,4.9c0.1,0.3,0.1,0.6,0.1,0.9c0,0.3-0.2,0.8-0.8,1.3s-1,0.8-1.6,0.8
		c-1.5,0-2.2-1.7-2.2-5.1c0-3.5,0.6-9.1,1.7-16.8c0.4-2.7,0.6-4.3,0.6-4.9c0-1.2,0.2-2.2,0.5-3.1s0.8-1.3,1.5-1.3
		c0.8,0,1.4,0.2,1.8,0.7c0.4,0.5,0.7,1,0.7,1.6s-0.1,1.3-0.3,2.3c-1.1,5.1-1.8,8.7-2.1,10.9S213.4,43.6,213.4,46.7z M216.3,14.5
		c-0.3,0-0.6-0.4-0.7-1.3c-0.1-0.3-0.1-0.6-0.2-0.9c-0.4-1.2-0.6-2.3-0.6-3.3c0-0.8,0.4-1.5,1.1-2.3c0.7-0.8,1.5-1.2,2.4-1.2
		c0.4,0,0.9,0.2,1.5,0.6c0.5,0.4,0.8,0.9,0.8,1.3c0,0.6-0.2,1.7-0.6,3.2c-0.4,1.5-1,2.5-1.8,3.1C217.4,14.2,216.7,14.5,216.3,14.5z"
		/>
	<path class="st0" d="M234.6,30.9c-0.8,0-1.6,0.6-2.6,2c-0.9,1.3-2.3,4.2-4.2,8.8c-2.5,6.1-4.1,9.6-4.9,10.4
		c-0.7,0.8-1.3,1.3-1.8,1.3c-1.8,0-2.7-1.1-2.7-3.3c0-0.9,0.1-2.2,0.4-3.9c0.8-5.8,1.2-11.9,1.2-18.4c0-0.7,0.2-1.5,0.7-2.4
		s0.9-1.3,1.4-1.3c0.8,0,1.3,0.3,1.7,0.9c0.3,0.6,0.5,1.9,0.5,3.7c0,1.9-0.4,5.9-1.4,12c-0.3,2-0.4,3.3-0.4,3.8
		c0,0.3,0.1,0.5,0.2,0.5c0.2,0,1.3-2.3,3.1-6.9c1.9-4.7,3.5-8,4.9-9.9s3-2.9,4.7-2.9c1.4,0,2.5,0.8,3.3,2.4c0.9,1.6,1.5,4.4,1.9,8.6
		c0.4,4.8,0.8,7.7,1.1,8.9s0.9,1.7,1.6,1.7c0.5,0,1.1-0.2,1.8-0.6c0.1-0.1,0.2-0.1,0.3-0.1c0.6,0,1,0.5,1,1.4c0,0.8-0.4,1.7-1.3,2.7
		c-0.9,1-2,1.4-3.2,1.4c-1.3,0-2.3-0.7-3-2s-1.2-4.8-1.7-10.4C236.9,33.7,236,30.9,234.6,30.9z"/>
	<path class="st0" d="M251.1,46.7c0,1.5,0.2,3.1,0.5,4.9c0.1,0.3,0.1,0.6,0.1,0.9c0,0.3-0.2,0.8-0.8,1.3s-1,0.8-1.6,0.8
		c-1.5,0-2.2-1.7-2.2-5.1c0-3.5,0.6-9.1,1.7-16.8c0.4-2.7,0.6-4.3,0.6-4.9c0-1.2,0.2-2.2,0.5-3.1s0.8-1.3,1.5-1.3
		c0.8,0,1.4,0.2,1.8,0.7c0.4,0.5,0.7,1,0.7,1.6s-0.1,1.3-0.3,2.3c-1.1,5.1-1.8,8.7-2.1,10.9S251.1,43.6,251.1,46.7z M254,14.5
		c-0.3,0-0.6-0.4-0.7-1.3c-0.1-0.3-0.1-0.6-0.2-0.9c-0.4-1.2-0.6-2.3-0.6-3.3c0-0.8,0.4-1.5,1.1-2.3c0.7-0.8,1.5-1.2,2.4-1.2
		c0.4,0,0.9,0.2,1.5,0.6c0.5,0.4,0.8,0.9,0.8,1.3c0,0.6-0.2,1.7-0.5,3.2c-0.4,1.5-1,2.5-1.8,3.1C255.1,14.2,254.4,14.5,254,14.5z"/>
</g>
<path class="st1" d="M42.1,89.7c-6.9,0-12.4-5.6-12.4-12.5s5.6-12.5,12.4-12.5s12.5,5.6,12.5,12.5S49,89.7,42.1,89.7z M42.1,67.6
	c-5.3,0-9.6,4.3-9.6,9.6s4.3,9.6,9.6,9.6s9.6-4.3,9.6-9.6C51.7,71.9,47.4,67.6,42.1,67.6z"/>
<g>
	<path class="st1" d="M95.9,89.7c-6.9,0-12.4-5.6-12.4-12.5S89,64.7,95.9,64.7s12.4,5.6,12.4,12.5S102.7,89.7,95.9,89.7z M95.9,67.6
		c-5.3,0-9.6,4.3-9.6,9.6s4.3,9.6,9.6,9.6s9.6-4.3,9.6-9.6S101.1,67.6,95.9,67.6z"/>
	<g>
		<g>
			<ellipse class="st0" cx="42.1" cy="77.2" rx="4.7" ry="4.7"/>
			<path class="st1" d="M95.9,73.2c-2.2,0-3.9,1.8-3.9,4s1.8,3.9,3.9,3.9s3.9-1.8,3.9-3.9S98,73.2,95.9,73.2z"/>
		</g>
		<ellipse class="st0" cx="95.9" cy="77.2" rx="4.7" ry="4.7"/>
	</g>
</g>
<path class="st1" d="M55.2,60.7H31.7c-2.6,0-5-1.8-5.7-4.4l-6.7-25C18.9,30,17.6,29,16.2,29h-0.7c-2.9,0-5.7,0.8-8.1,2.3l-0.7,0.5
	c-0.5,0.3-1.2,0.2-1.6-0.4S5,30.1,5.5,29.8l0.7-0.5c2.8-1.7,6-2.6,9.3-2.6h0.7c2.5,0,4.6,1.7,5.3,4l6.7,25c0.4,1.6,1.9,2.7,3.5,2.7
	h214.2c16.9-1.7,18.7-18.5,18.8-19.3V39c1.6-8.3,5.5-11.4,10.3-14.5c3.5-2.3,11.3-4.2,15.3-2.1c1.7,0.9,2.6,2.5,2.6,4.4v22.3
	c0,0.6-0.5,1.1-1.1,1.1s-1.1-0.5-1.1-1.1V26.9c0-1.2-0.5-1.9-1.4-2.5c-2.9-1.6-9.6-0.2-13,2c-4.5,2.9-7.8,5.6-9.3,13
	c-0.1,1.3-2.6,19.4-20.9,21.2L55.2,60.7z"/>
<path class="st2" d="M245.6,59.6"/>
<g>
	<path class="st0" d="M131.6,86.6h0.6c0.3,0,0.8,0.2,1.2,0.5c0.5,0.3,0.7,0.8,0.7,1.4c0,1.2-0.2,2-0.6,2.5s-1.1,1.1-2,1.8
		c-0.9,0.7-1.5,1-1.9,1c-0.8,0-1.4-0.2-1.8-0.6c-0.4-0.4-0.6-1.4-0.6-3c0-1.5,0.1-2.4,0.3-2.7c0.2-0.3,0.6-0.5,1.3-0.7
		C129.5,86.7,130.4,86.6,131.6,86.6z"/>
	<path class="st0" d="M146.2,96.2c-2.9,0-5.1-0.8-6.7-2.5c-1.6-1.7-2.3-4-2.3-6.9c0-5,2-10.3,6-15.9s7.8-8.3,11.2-8.3
		c1.6,0,2.9,0.8,4.1,2.5c1.1,1.7,1.7,3.5,1.7,5.4c0,1.1-0.2,2.1-0.7,2.9s-1,1.2-1.5,1.2c-1.1,0-1.9-1.1-2.4-3.4
		c-0.5-2.4-1.3-3.6-2.3-3.6c-2,0-4.4,2.4-7.2,7.1c-2.8,4.8-4.1,8.8-4.1,12c0,3.3,1.9,4.9,5.6,4.9c2.9,0,6.2-1.3,10.1-4
		c1.4-0.9,2.4-1.4,3-1.4c0.7,0,1,0.4,1,1.1c0,1.5-1.7,3.3-5.2,5.5C152.9,95.1,149.5,96.2,146.2,96.2z"/>
	<path class="st0" d="M172.8,96c-2.7,0-4.9-1-6.6-3s-2.6-4.5-2.6-7.4c0-5,1.7-9.8,5.1-14.7c3.4-4.8,7.4-7.2,12.1-7.2
		c3.1,0,5.6,1.2,7.6,3.5c1.9,2.4,2.9,5.2,2.9,8.5c0,5-2,9.6-6,13.9S177.1,96,172.8,96z M168.8,84.8c0,1.9,0.4,3.5,1.2,4.8
		c0.8,1.2,1.9,1.8,3.3,1.8c2.9,0,5.8-1.6,8.7-4.7s4.4-6.6,4.4-10.5c0-2.4-0.6-4.3-1.7-5.8c-1.1-1.5-2.6-2.2-4.5-2.2
		c-3.1,0-5.8,1.9-8.1,5.7C169.9,77.8,168.8,81.4,168.8,84.8z"/>
	<path class="st0" d="M215.9,71.7c-1.8,0-5.7,5.3-11.6,15.9c-2,3.6-3.2,5.5-3.5,5.8s-0.9,0.6-1.8,0.8s-1.6,0.4-2.2,0.4
		c-1.3,0-1.9-2.5-1.9-7.5c0-2.8,0.6-7.9,1.8-15.3c0.5-3,0.8-5.1,0.8-6.4s0.6-1.9,1.7-1.9c2.1,0,3.2,1.5,3.2,4.6
		c0,1.4-0.4,4.3-1.1,8.5c-0.8,4.8-1.3,7.7-1.3,8.8c1.2-1.2,3-3.7,5.3-7.6c3.3-5.3,5.7-8.7,7.3-10.2s3.2-2.2,4.9-2.2
		c1.3,0,2.3,0.8,3,2.5c0.8,1.7,1.2,5.7,1.4,12c0,1.6,0.2,2.8,0.4,3.5c0.2,0.8,0.4,1.2,0.6,1.2c0.9,0,2.9-3.1,5.9-9.2
		c1.6-3.2,3.2-5.7,4.8-7.4c1.5-1.7,3.2-2.5,5.1-2.5c1.6,0,2.7,0.8,3.4,2.4s1.2,4,1.5,7.1c0.3,3.2,0.7,6.1,1.4,8.8s1.7,4.3,3.4,5.1
		c1.1,0.5,1.7,1.1,1.7,1.8c0,0.7-0.5,1.4-1.4,2.1s-1.8,1.1-2.6,1.1c-1.6,0-2.9-0.9-4.2-2.8c-1.2-1.9-2.1-6-2.8-12.2
		c-0.3-2.5-0.5-4.3-0.8-5.4c-0.2-1.1-0.6-1.6-1.2-1.6c-0.8,0-1.8,0.8-2.9,2.3s-2.9,4.7-5.4,9.4c-1.9,3.7-3.4,6.1-4.4,7.3
		c-1,1.2-2,1.8-2.9,1.8c-0.8,0-1.6-0.3-2.2-1c-0.7-0.7-1.1-1.5-1.2-2.4s-0.4-3.2-0.6-6.9C217.2,76.3,216.6,72.7,215.9,71.7z"/>
</g>
<radialGradient id="SVGID_1_" cx="306.7945" cy="1056.5312" r="11.2787" gradientTransform="matrix(0.9907 0 0 0.9959 -8.4505 -975.0676)" gradientUnits="userSpaceOnUse">
	<stop  offset="0" style="stop-color:#F37921"/>
	<stop  offset="1" style="stop-color:#D72638"/>
</radialGradient>
<path class="st3" d="M278.9,60.9H305v14c0,7.1-5.7,12.8-12.8,12.8h-0.5c-7.1,0-12.8-5.8-12.8-12.8L278.9,60.9L278.9,60.9z"/>
<path class="st1" d="M278.9,59.3v-4.4c0,0,1.1-5.9,7.5-6.3v10.7H278.9z"/>
<path class="st1" d="M305,59.3v-4.4c0,0-1.1-5.9-7.5-6.3v10.7H305z"/>
<rect x="287.9" y="48.2" class="st1" width="8.1" height="11.1"/>
</svg>
